<svg width="13" height="16" viewBox="0 0 13 16" fill="none" xmlns="http://www.w3.org/2000/svg">
<path d="M3.2215 15.701C2.90605 15.4911 2.62646 15.2318 2.3935 14.933C2.13724 14.6246 1.89981 14.301 1.6825 13.964C1.17254 13.2169 0.772618 12.4004 0.495 11.5395C0.1615 10.5395 0 9.581 0 8.6435C0 7.5965 0.2265 6.6825 0.6695 5.9145C0.997889 5.31422 1.48071 4.81259 2.068 4.4615C2.63715 4.10799 3.29112 3.91453 3.961 3.9015C4.1955 3.9015 4.448 3.9355 4.716 4.0005C4.9085 4.055 5.143 4.141 5.4295 4.248C5.794 4.3885 5.9945 4.4745 6.0625 4.4955C6.276 4.5735 6.4555 4.6075 6.5965 4.6075C6.7035 4.6075 6.8545 4.5735 7.026 4.5215C7.1225 4.4875 7.3045 4.4275 7.565 4.316C7.823 4.222 8.026 4.1415 8.1875 4.0815C8.435 4.0085 8.6745 3.941 8.888 3.907C9.14111 3.8671 9.39797 3.85653 9.6535 3.8755C10.0963 3.90444 10.5325 3.99828 10.948 4.154C11.6275 4.4275 12.177 4.8545 12.586 5.4615C12.4131 5.56805 12.2509 5.69095 12.1015 5.8285C11.7763 6.11679 11.4993 6.45523 11.281 6.831C10.9957 7.34453 10.8477 7.92303 10.8515 8.5105C10.862 9.232 11.047 9.8675 11.4115 10.417C11.6795 10.8243 12.0277 11.1725 12.435 11.4405C12.6435 11.581 12.823 11.6775 12.995 11.7425C12.9145 11.9925 12.8285 12.2345 12.727 12.4745C12.4968 13.0127 12.2178 13.5287 11.8935 14.016C11.6045 14.4355 11.378 14.748 11.206 14.956C10.938 15.2735 10.68 15.516 10.4195 15.685C10.133 15.875 9.7945 15.9765 9.4505 15.9765C9.21753 15.9854 8.98461 15.9573 8.7605 15.893C8.568 15.828 8.3775 15.7575 8.19 15.677C7.99507 15.5875 7.79407 15.5118 7.5885 15.4505C7.08035 15.32 6.54757 15.3191 6.039 15.448C5.8305 15.508 5.63 15.578 5.432 15.664C5.1535 15.781 4.9685 15.8595 4.8615 15.893C4.648 15.9555 4.4265 15.9945 4.2025 16.0075C3.856 16.0075 3.533 15.9085 3.213 15.708L3.2215 15.701ZM7.7915 3.3935C7.3385 3.62 6.906 3.7165 6.4765 3.685C6.409 3.2525 6.4765 2.81 6.656 2.3255C6.80882 1.91503 7.03462 1.53559 7.3225 1.2055C7.6265 0.858011 7.9954 0.573188 8.4085 0.367C8.8485 0.1405 9.268 0.018 9.669 0C9.721 0.453 9.669 0.8985 9.5025 1.38C9.34842 1.80564 9.12303 2.20196 8.836 2.552C8.54303 2.89996 8.18349 3.18589 7.7785 3.393L7.7915 3.3935Z" fill="#000"/>
</svg>
