<svg width="16" height="16" viewBox="0 0 16 16" fill="none" xmlns="http://www.w3.org/2000/svg">
<g clip-path="url(#clip0)">
<path d="M15.1169 16.0001C15.6046 16.0001 16 15.6047 16 15.117V0.883062C16 0.395312 15.6046 0 15.1169 0H0.883062C0.39525 0 0 0.395312 0 0.883062V15.117C0 15.6047 0.39525 16.0001 0.883062 16.0001H15.1169" fill="white"/>
<path d="M11.0396 16V9.80394H13.1194L13.4308 7.38925H11.0396V5.8475C11.0396 5.14838 11.2338 4.67194 12.2364 4.67194L13.5151 4.67138V2.51169C13.2938 2.48225 12.5348 2.4165 11.6518 2.4165C9.80819 2.4165 8.54606 3.54182 8.54606 5.60844V7.38925H6.46094V9.80394H8.54606V16H11.0396" fill="#395185"/>
</g>
<defs>
<clipPath id="clip0">
<rect width="16" height="16" fill="white"/>
</clipPath>
</defs>
</svg>
