<svg width="184" height="37" viewBox="0 0 184 37" fill="none" xmlns="http://www.w3.org/2000/svg">
<g clip-path="url(#clip0)">
<path d="M35.8065 4.06641L42.8813 31.9516H34.8313L34.0585 27.0664H28.0417L27.2689 31.9516H19.3477L26.2937 4.06641H35.8065V4.06641ZM31.0041 9.77041L28.9341 21.6016H33.1569L31.0869 9.77041H31.0041V9.77041Z" fill="#67BD6B"/>
<path d="M53.277 10.0004H44.7854V4.06641H62.0998V9.30121L52.8354 26.0084H62.0998V31.9424H44.1782V26.7076L53.277 10.0004Z" fill="#67BD6B"/>
<path d="M9.108 10.0004H0.6072V4.06641H17.9216V9.30121L8.6572 26.0084H17.9216V31.9424H0V26.7076L9.108 10.0004Z" fill="#67BD6B"/>
<path d="M72.9467 24.1776C72.9467 25.53 73.1491 26.4408 73.5539 26.8916C73.9587 27.3516 74.5107 27.5724 75.2191 27.5724C75.9275 27.5724 76.4795 27.3424 76.8843 26.8916C77.2891 26.4408 77.4915 25.53 77.4915 24.1776V4.06641H85.0539V22.3468C85.0539 24.2972 84.8331 25.9256 84.4007 27.2228C83.9683 28.5292 83.3427 29.5688 82.5147 30.3508C81.6867 31.1328 80.6655 31.6664 79.4419 31.9516C78.2275 32.2368 76.8107 32.384 75.2191 32.384C73.6459 32.384 72.2475 32.2368 71.0147 31.9516C69.7819 31.6664 68.7515 31.1328 67.9235 30.3508C67.0955 29.5688 66.4699 28.5292 66.0375 27.2228C65.6051 25.9256 65.3843 24.2972 65.3843 22.3468V4.06641H72.9375V24.1776H72.9467Z" fill="#67BD6B"/>
<path d="M100.63 4.06641L103.675 25.0792H103.758L106.803 4.06641H114.853L108.597 31.9516H98.8449L92.7085 4.06641H100.63V4.06641Z" fill="white"/>
<path d="M116.757 11.3529C117.107 9.51288 117.696 8.02248 118.505 6.86328C119.315 5.70408 120.382 4.85768 121.716 4.32408C123.05 3.79048 124.669 3.52368 126.592 3.52368C128.515 3.52368 130.143 3.79048 131.468 4.32408C132.793 4.85768 133.86 5.70408 134.679 6.86328C135.498 8.02248 136.077 9.52208 136.427 11.3529C136.776 13.1929 136.951 15.4101 136.951 18.0137C136.951 20.6173 136.776 22.8345 136.427 24.6745C136.077 26.5145 135.488 28.0049 134.679 29.1641C133.869 30.3233 132.802 31.1513 131.468 31.6481C130.143 32.1357 128.515 32.3933 126.592 32.3933C124.669 32.3933 123.041 32.1449 121.716 31.6481C120.391 31.1513 119.324 30.3233 118.505 29.1641C117.696 28.0049 117.107 26.5145 116.757 24.6745C116.408 22.8345 116.224 20.6173 116.224 18.0137C116.224 15.4101 116.408 13.1837 116.757 11.3529ZM124.117 22.6781C124.172 23.9109 124.283 24.8953 124.467 25.6221C124.651 26.3489 124.899 26.8549 125.24 27.1401C125.58 27.4253 126.031 27.5725 126.601 27.5725C127.172 27.5725 127.622 27.4253 127.963 27.1401C128.303 26.8549 128.561 26.3489 128.736 25.6221C128.91 24.8953 129.03 23.9109 129.085 22.6781C129.14 21.4361 129.168 19.8813 129.168 18.0137C129.168 16.1369 129.14 14.5821 129.085 13.3493C129.03 12.1165 128.92 11.1321 128.736 10.4053C128.561 9.67848 128.303 9.17248 127.963 8.88728C127.622 8.60208 127.172 8.45488 126.601 8.45488C126.031 8.45488 125.58 8.60208 125.24 8.88728C124.899 9.17248 124.642 9.67848 124.467 10.4053C124.292 11.1321 124.172 12.1165 124.117 13.3493C124.062 14.5913 124.034 16.1369 124.034 18.0137C124.034 19.8813 124.062 21.4361 124.117 22.6781Z" fill="white"/>
<path d="M151.791 9.30114C151.46 8.73074 150.935 8.43634 150.208 8.43634C149.638 8.43634 149.187 8.58354 148.847 8.86874C148.506 9.15394 148.249 9.65994 148.074 10.3867C147.899 11.1135 147.78 12.0979 147.724 13.3307C147.669 14.5727 147.642 16.1183 147.642 17.9951C147.642 19.8719 147.669 21.4267 147.724 22.6595C147.78 23.8923 147.89 24.8767 148.074 25.6035C148.258 26.3303 148.506 26.8363 148.847 27.1215C149.187 27.4067 149.638 27.5539 150.208 27.5539C150.668 27.5539 151.046 27.4435 151.349 27.2227C151.644 27.0019 151.883 26.6339 152.039 26.1095C152.196 25.5851 152.315 24.8951 152.389 24.0211C152.453 23.1471 152.49 22.0523 152.49 20.7183H159.804V22.7883C159.804 24.7387 159.537 26.3395 158.994 27.5907C158.452 28.8419 157.734 29.8263 156.842 30.5347C155.949 31.2523 154.928 31.7307 153.769 31.9791C152.619 32.2275 151.432 32.3471 150.208 32.3471C148.092 32.3471 146.363 32.0987 145.01 31.6019C143.658 31.1051 142.6 30.2771 141.836 29.1179C141.082 27.9587 140.558 26.4683 140.272 24.6283C139.987 22.7883 139.849 20.5711 139.849 17.9675C139.849 15.3087 140.015 13.0639 140.355 11.2147C140.696 9.36554 141.266 7.86594 142.085 6.72514C142.894 5.58434 143.971 4.75634 145.296 4.24114C146.62 3.73514 148.267 3.47754 150.208 3.47754C151.92 3.47754 153.364 3.68914 154.56 4.10314C155.756 4.51714 156.722 5.11514 157.467 5.87874C158.212 6.64234 158.755 7.57154 159.096 8.64794C159.436 9.73354 159.602 10.9479 159.602 12.3003V14.0575H152.288V12.4935C152.278 10.9479 152.122 9.87154 151.791 9.30114Z" fill="white"/>
<path d="M177.799 4.06645L184 28.5016L176.824 31.9424L176.051 27.0572H170.034L169.262 31.9424H161.34L168.286 4.05725H177.799V4.06645ZM173.006 9.77045L170.936 21.6016H175.159L173.089 9.77045H173.006V9.77045Z" fill="white"/>
<path d="M176.824 31.9516L184 28.5016L181.957 26.6432L176.824 31.9516Z" fill="#67BD6B"/>
</g>
<defs>
<clipPath id="clip0">
<rect width="184" height="36.8" fill="white"/>
</clipPath>
</defs>
</svg>
