<svg width="14" height="15" viewBox="0 0 14 15" fill="none" xmlns="http://www.w3.org/2000/svg">
<path d="M6.13281 0H7.30469C7.40885 0 7.46094 0.0520833 7.46094 0.15625V13.9062C7.46094 14.0104 7.40885 14.0625 7.30469 14.0625H6.13281C6.02865 14.0625 5.97656 14.0104 5.97656 13.9062V0.15625C5.97656 0.0520833 6.02865 0 6.13281 0Z" fill="#79B270"/>
<path d="M0.15625 6.28906H13.2812C13.3854 6.28906 13.4375 6.34115 13.4375 6.44531V7.61719C13.4375 7.72135 13.3854 7.77344 13.2812 7.77344H0.15625C0.0520833 7.77344 0 7.72135 0 7.61719V6.44531C0 6.34115 0.0520833 6.28906 0.15625 6.28906Z" fill="#79B270"/>
</svg>
