<svg width="19" height="19" viewBox="0 0 19 19" fill="none" xmlns="http://www.w3.org/2000/svg">
<path d="M18.9429 17.6343L12.7751 11.4665C13.7322 10.2291 14.2499 8.71621 14.2499 7.12497C14.2499 5.22023 13.5066 3.43424 12.1623 2.08762C10.8181 0.740997 9.02734 0 7.12497 0C5.2226 0 3.43186 0.743372 2.08762 2.08762C0.740997 3.43186 0 5.22023 0 7.12497C0 9.02734 0.743372 10.8181 2.08762 12.1623C3.43186 13.5089 5.22023 14.2499 7.12497 14.2499C8.71621 14.2499 10.2267 13.7322 11.4641 12.7774L17.6319 18.9429C17.65 18.961 17.6715 18.9754 17.6951 18.9852C17.7188 18.995 17.7441 19 17.7697 19C17.7953 19 17.8206 18.995 17.8442 18.9852C17.8679 18.9754 17.8893 18.961 17.9074 18.9429L18.9429 17.9098C18.961 17.8917 18.9754 17.8702 18.9852 17.8466C18.995 17.823 19 17.7976 19 17.772C19 17.7465 18.995 17.7211 18.9852 17.6975C18.9754 17.6739 18.961 17.6524 18.9429 17.6343V17.6343ZM10.887 10.887C9.87996 11.8916 8.54521 12.4449 7.12497 12.4449C5.70473 12.4449 4.36998 11.8916 3.36299 10.887C2.35836 9.87996 1.80499 8.54521 1.80499 7.12497C1.80499 5.70473 2.35836 4.36761 3.36299 3.36299C4.36998 2.35836 5.70473 1.80499 7.12497 1.80499C8.54521 1.80499 9.88233 2.35599 10.887 3.36299C11.8916 4.36998 12.4449 5.70473 12.4449 7.12497C12.4449 8.54521 11.8916 9.88233 10.887 10.887Z" fill="#C4C4C4"/>
</svg>
