<svg width="24" height="24" viewBox="0 0 24 24" fill="none" xmlns="http://www.w3.org/2000/svg">
<path d="M19 13V18C19 18.55 18.55 19 18 19H6C5.45 19 5 18.55 5 18V13C5 12.45 4.55 12 4 12C3.45 12 3 12.45 3 13V19C3 20.1 3.9 21 5 21H19C20.1 21 21 20.1 21 19V13C21 12.45 20.55 12 20 12C19.45 12 19 12.45 19 13ZM13 12.67L14.88 10.79C14.9726 10.6974 15.0825 10.624 15.2035 10.5739C15.3244 10.5238 15.4541 10.498 15.585 10.498C15.7159 10.498 15.8456 10.5238 15.9665 10.5739C16.0875 10.624 16.1974 10.6974 16.29 10.79C16.3826 10.8826 16.456 10.9925 16.5061 11.1135C16.5562 11.2344 16.582 11.3641 16.582 11.495C16.582 11.6259 16.5562 11.7556 16.5061 11.8765C16.456 11.9975 16.3826 12.1074 16.29 12.2L12.7 15.79C12.6075 15.8827 12.4976 15.9563 12.3766 16.0064C12.2557 16.0566 12.126 16.0824 11.995 16.0824C11.864 16.0824 11.7343 16.0566 11.6134 16.0064C11.4924 15.9563 11.3825 15.8827 11.29 15.79L7.7 12.2C7.51302 12.013 7.40798 11.7594 7.40798 11.495C7.40798 11.2306 7.51302 10.977 7.7 10.79C7.88698 10.603 8.14057 10.498 8.405 10.498C8.66943 10.498 8.92302 10.603 9.11 10.79L11 12.67V4C11 3.45 11.45 3 12 3C12.55 3 13 3.45 13 4V12.67Z" fill="#192328"/>
</svg>
